<svg width="85" height="85" viewBox="0 0 85 85" fill="none" xmlns="http://www.w3.org/2000/svg">
<path d="M20.2466 59.7046L42.2702 37.9144" stroke="black" stroke-linecap="round"/>
<path d="M65.1445 60.365L42.2705 37.9145" stroke="black" stroke-linecap="round"/>
<path d="M56.6235 43.2026L56.6235 51.5125" stroke="black" stroke-linecap="round"/>
<rect x="36.2266" y="51.5125" width="5.225" height="5.225" rx="0.4" fill="#BDBDBD"/>
<rect x="36.2266" y="57.4934" width="5.225" height="5.225" rx="0.4" fill="#BDBDBD"/>
<rect x="42.27" y="51.5125" width="5.225" height="5.225" rx="0.4" fill="#BDBDBD"/>
<rect x="42.27" y="57.4934" width="5.225" height="5.225" rx="0.4" fill="#BDBDBD"/>
<path fill-rule="evenodd" clip-rule="evenodd" d="M9.97687 47.8212C10.0507 47.9257 10.1244 48.0301 10.198 48.1342C11.7313 50.3037 13.2155 52.4039 14.1355 54.3492C16.9262 60.2502 21.512 65.145 27.2365 68.3331C32.961 71.5212 39.5309 72.8392 46.0056 72.0983C52.4803 71.3574 58.528 68.5957 63.283 64.2085C68.038 59.8212 71.2565 54.0334 72.4779 47.6733C72.8882 45.5373 73.9689 43.4796 75.1183 41.4648C74.7795 38.4743 74.0279 35.527 72.8701 32.7093C70.6334 27.2661 66.9784 22.5448 62.3105 19.0227C60.9631 18.006 59.0696 18.4627 58.183 19.899C57.2964 21.3353 57.7554 23.2054 59.0807 24.2507C62.6611 27.0747 65.4701 30.7832 67.2163 35.0325C69.3512 40.228 69.7878 45.9658 68.4634 51.4245C67.1391 56.8832 64.1218 61.783 59.8435 65.4226C55.5651 69.0621 50.2449 71.2549 44.6446 71.687C39.0442 72.1191 33.4506 70.7684 28.6646 67.8282C23.8785 64.888 20.1453 60.509 17.9993 55.3181C15.8533 50.1272 15.4045 44.3904 16.7172 38.9289C17.7908 34.462 19.9977 30.3665 23.1025 27.0267C24.2518 25.7904 24.4185 23.8721 23.322 22.5888C22.2256 21.3054 20.2845 21.1446 19.109 22.356C15.0366 26.5524 12.1491 31.7786 10.7739 37.5004C9.95736 40.8976 9.6951 44.3815 9.97687 47.8212Z" fill="#3A56B9"/>
</svg>
